<?xml version="1.0" encoding="UTF-8" standalone="no"?>
<!DOCTYPE svg PUBLIC "-//W3C//DTD SVG 1.1//EN" "http://www.w3.org/Graphics/SVG/1.1/DTD/svg11.dtd">
<svg version="1.1" xmlns="http://www.w3.org/2000/svg" xmlns:xlink="http://www.w3.org/1999/xlink" preserveAspectRatio="xMidYMid meet" viewBox="0 0 640 640" width="640" height="640"><defs><path d="M405.61 19.94C420.2 5.23 434.79 5.23 449.38 19.94C494.18 65.09 519.07 90.17 524.05 95.19C538.64 109.89 538.64 124.6 524.05 139.3C479.25 184.45 454.36 209.54 449.38 214.55C434.79 229.26 420.2 229.26 405.61 214.55C360.81 169.4 335.92 144.32 330.94 139.3C316.35 124.6 316.35 109.89 330.94 95.19C375.74 50.04 400.63 24.96 405.61 19.94Z" id="c1CHXhdWiO"></path><path d="M382.63 469.57C396.75 455.34 410.87 455.34 424.99 469.57C452.17 496.95 467.26 512.16 470.28 515.21C484.4 529.44 484.4 543.67 470.28 557.9C443.11 585.28 428.01 600.5 424.99 603.54C410.87 617.77 396.75 617.77 382.63 603.54C355.46 576.15 340.36 560.94 337.34 557.9C323.22 543.67 323.22 529.44 337.34 515.21C364.52 487.82 379.61 472.61 382.63 469.57Z" id="bs6R9xn9y"></path><path d="M91.05 157.31C100.46 147.82 109.87 147.82 119.29 157.31C137.45 175.61 147.54 185.78 149.56 187.82C158.97 197.3 158.97 206.79 149.56 216.28C131.39 234.58 121.3 244.75 119.29 246.78C109.87 256.27 100.46 256.27 91.05 246.78C72.88 228.48 62.79 218.31 60.77 216.28C51.36 206.79 51.36 197.3 60.77 187.82C78.94 169.51 89.03 159.34 91.05 157.31Z" id="e8lDjrE8Ao"></path><path d="M74.73 257.46C79.44 252.71 84.14 252.71 88.85 257.46C100.93 269.64 107.65 276.4 108.99 277.76C113.7 282.5 113.7 287.24 108.99 291.99C96.91 304.17 90.19 310.93 88.85 312.29C84.14 317.03 79.44 317.03 74.73 312.29C62.64 300.11 55.93 293.34 54.58 291.99C49.88 287.24 49.88 282.5 54.58 277.76C66.67 265.58 73.39 258.81 74.73 257.46Z" id="beZ6NCjqF"></path><path d="M447.19 270.77C476.35 298.67 477.37 344.93 449.47 374.09C418.71 406.24 376.96 449.88 346.2 482.02C318.3 511.18 272.04 512.2 242.88 484.3C211.2 453.99 168.96 413.57 137.28 383.26C108.12 355.36 107.1 309.1 135 279.94C165.75 247.79 207.5 204.16 238.26 172.01C266.16 142.85 312.42 141.83 341.58 169.73C373.27 200.04 415.51 240.46 447.19 270.77Z" id="fykM1eF4l"></path></defs><g><g><g><use xlink:href="#c1CHXhdWiO" opacity="1" fill="#d2e603" fill-opacity="1"></use><g><use xlink:href="#c1CHXhdWiO" opacity="1" fill-opacity="0" stroke="#000000" stroke-width="1" stroke-opacity="0"></use></g></g><g><use xlink:href="#bs6R9xn9y" opacity="1" fill="#2ec1ac" fill-opacity="1"></use><g><use xlink:href="#bs6R9xn9y" opacity="1" fill-opacity="0" stroke="#000000" stroke-width="1" stroke-opacity="0"></use></g></g><g><use xlink:href="#e8lDjrE8Ao" opacity="1" fill="#2ec1ac" fill-opacity="1"></use><g><use xlink:href="#e8lDjrE8Ao" opacity="1" fill-opacity="0" stroke="#000000" stroke-width="1" stroke-opacity="0"></use></g></g><g><use xlink:href="#beZ6NCjqF" opacity="1" fill="#d2e603" fill-opacity="1"></use><g><use xlink:href="#beZ6NCjqF" opacity="1" fill-opacity="0" stroke="#000000" stroke-width="1" stroke-opacity="0"></use></g></g><g><use xlink:href="#fykM1eF4l" opacity="1" fill="#3e978b" fill-opacity="1"></use></g></g></g></svg>